<?xml version="1.0" standalone="no"?>
<!DOCTYPE svg PUBLIC "-//W3C//DTD SVG 20010904//EN"
 "http://www.w3.org/TR/2001/REC-SVG-20010904/DTD/svg10.dtd">
<svg version="1.0" xmlns="http://www.w3.org/2000/svg"
 width="440.000000pt" height="440.000000pt" viewBox="0 0 440.000000 440.000000"
 preserveAspectRatio="xMidYMid meet">
<metadata>
Created by potrace 1.11, written by Peter Selinger 2001-2013
</metadata>
<g transform="translate(0.000000,440.000000) scale(0.100000,-0.100000)"
fill="#000000" stroke="none">
<path d="M2005 4389 c-98 -13 -165 -29 -258 -61 -275 -94 -476 -290 -646 -628
-86 -172 -139 -310 -306 -810 -171 -510 -175 -521 -185 -535 -4 -5 -11 -21
-15 -35 -4 -14 -15 -43 -25 -65 -249 -564 -265 -616 -264 -860 0 -108 3 -130
33 -222 43 -134 131 -287 240 -418 63 -75 267 -267 357 -336 289 -222 523
-341 799 -405 55 -13 794 -16 880 -4 337 47 742 277 1075 610 205 204 315 371
376 567 23 74 28 107 28 208 1 66 -2 143 -6 171 -14 94 -58 228 -135 404 -147
339 -204 486 -275 699 -40 119 -73 221 -74 226 -9 40 -153 449 -199 565 -62
156 -143 323 -200 408 -19 30 -35 57 -35 62 0 5 -3 10 -7 12 -5 2 -20 19 -34
38 -158 212 -388 350 -669 401 -78 14 -371 19 -455 8z"/>
</g>
</svg>
